<?xml version="1.0" standalone="no"?><!DOCTYPE svg PUBLIC "-//W3C//DTD SVG 1.1//EN" "http://www.w3.org/Graphics/SVG/1.1/DTD/svg11.dtd"><svg t="1614772938018" class="icon" viewBox="0 0 1024 1024" version="1.1" xmlns="http://www.w3.org/2000/svg" p-id="1718" xmlns:xlink="http://www.w3.org/1999/xlink" width="200" height="200"><defs><style type="text/css"></style></defs><path d="M962 821.164V510c0-115.794-94.206-210-210-210-115.934 0-210 94.348-210 210v312.662a276.34 276.34 0 0 0-30 46.468c-12.588-24.608-28.958-47.466-48.84-67.808-22.688-23.21-48.634-41.794-76.75-55.312C443.91 708.508 482 643.622 482 570v-60c0-115.794-94.206-210-210-210H30c-16.568 0-30 13.432-30 30 0 57.814 23.71 110.244 62 148.256V570c0 73.55 38.016 138.38 95.422 175.902C67.264 788.896 0 883.024 0 994c0 16.568 13.432 30 30 30h964c16.568 0 30-13.432 30-30 0-63.3-21.846-123.746-62-172.836zM63.054 360H272c72.438 0 133.048 51.618 146.986 120H212c-73.428 0-134.842-51.722-148.946-120zM122 570v-49.892C149.334 532.856 179.838 540 212 540h210v30c0 82.71-67.29 150-150 150s-150-67.29-150-150zM62.18 964c14.952-102.414 104.962-184 209.82-184 105.808 0 193.588 80.146 207.944 184H62.18zM752 360c72.438 0 133.044 51.616 146.982 120h-78.538c-65.982 0-127.522-30.732-167.12-82.83C679.72 374.056 714.24 360 752 360z m-150 150a149.068 149.068 0 0 1 14.13-63.464C667.066 505.582 741.268 540 820.444 540H902v30c0 82.71-67.29 150-150 150s-150-67.29-150-150v-60z m300 206.806v49.402a271.026 271.026 0 0 0-35.422-20.308A211.444 211.444 0 0 0 902 716.806z m-300 0a211.416 211.416 0 0 0 35.592 29.206A267.22 267.22 0 0 0 602 766.64v-49.834zM544.056 964c14.354-103.854 102.136-184 207.944-184 104.858 0 194.868 81.586 209.82 184H544.056z" p-id="1719"></path><path d="M586.422 0C557.446 0 531.954 11.788 512 34.25 492.046 11.788 466.554 0 437.578 0c-58.554 0-104.422 48.664-104.422 110.788-0.002 65.212 50.7 108.004 120.872 167.232 12.244 10.334 24.904 21.02 38.324 32.65 5.638 4.886 12.642 7.33 19.648 7.33s14.01-2.444 19.648-7.33c13.42-11.632 26.084-22.318 38.328-32.654 65.07-54.92 120.87-99.624 120.87-167.23C690.846 48.664 644.978 0 586.422 0z m-55.148 232.166c-6.294 5.314-12.7 10.72-19.276 16.31-6.574-5.59-12.978-10.994-19.272-16.306-67.248-56.76-99.574-85.63-99.574-121.382C393.154 85.55 408.414 60 437.578 60c32.214 0 44.67 39.702 45.534 42.592 3.488 13.146 15.282 22.306 28.89 22.306s25.402-9.158 28.89-22.306c0.86-2.89 13.316-42.592 45.53-42.592 29.164 0 44.422 25.55 44.422 50.788 0 37.256-37.828 69.266-99.57 121.378z" p-id="1720"></path></svg>