<?xml version="1.0" standalone="no"?>
<!DOCTYPE svg PUBLIC "-//W3C//DTD SVG 20010904//EN"
 "http://www.w3.org/TR/2001/REC-SVG-20010904/DTD/svg10.dtd">
<svg version="1.0" xmlns="http://www.w3.org/2000/svg"
 width="700.000000pt" height="700.000000pt" viewBox="0 0 700.000000 700.000000"
 preserveAspectRatio="xMidYMid meet">
<metadata>
Created by potrace 1.14, written by Peter Selinger 2001-2017
</metadata>
<g transform="translate(0.000000,700.000000) scale(0.100000,-0.100000)"
fill="#000000" stroke="none">
<path d="M3337 6554 c-1 -1 -47 -4 -102 -8 -109 -7 -149 -12 -240 -26 -33 -6
-76 -13 -95 -16 -69 -10 -286 -67 -402 -105 -202 -65 -491 -199 -626 -290 -24
-16 -45 -29 -48 -29 -10 0 -167 -112 -264 -189 -373 -294 -679 -685 -878
-1121 -61 -133 -131 -323 -158 -425 -1 -5 -12 -46 -23 -90 -27 -103 -48 -210
-66 -335 -3 -19 -7 -48 -10 -65 -17 -112 -23 -422 -11 -575 12 -154 18 -198
42 -325 33 -173 32 -167 60 -269 113 -401 311 -787 566 -1102 126 -156 286
-319 428 -434 30 -25 57 -47 60 -51 10 -13 258 -183 315 -216 159 -95 362
-193 505 -244 237 -87 537 -158 730 -174 36 -3 83 -8 105 -11 125 -18 555 0
730 31 321 57 593 145 860 277 726 361 1283 997 1539 1761 70 206 109 381 141
616 32 241 23 631 -20 851 -3 13 -7 42 -10 65 -18 122 -114 462 -150 532 -8
15 -15 33 -15 39 0 16 -61 149 -122 269 -195 380 -473 720 -804 984 -71 57
-137 109 -147 117 -9 8 -19 14 -22 14 -8 0 -100 65 -103 73 -2 4 -7 7 -12 7
-4 0 -37 17 -71 38 -173 105 -427 219 -624 282 -98 31 -305 83 -375 94 -19 3
-46 8 -59 11 -44 8 -174 25 -251 31 -70 6 -368 12 -373 8z m459 -1238 c405
-86 763 -303 1017 -616 79 -98 139 -191 207 -320 l55 -105 95 -2 c85 -3 162
-11 242 -28 47 -9 112 -42 135 -67 118 -127 -167 -338 -812 -603 -16 -7 -57
-22 -90 -35 -33 -12 -69 -26 -80 -31 -35 -15 -435 -146 -565 -185 -251 -73
-772 -202 -970 -238 -14 -2 -65 -12 -115 -21 -116 -22 -113 -21 -165 -30 -25
-4 -52 -9 -60 -10 -15 -3 -86 -14 -130 -20 -14 -2 -47 -7 -75 -10 -27 -4 -61
-8 -75 -10 -35 -6 -232 -25 -310 -31 -86 -7 -397 -7 -435 -1 -16 3 -50 8 -75
12 -165 25 -249 91 -218 174 23 61 129 158 257 234 l45 26 1 183 c1 101 5 201
9 223 29 166 42 223 76 327 90 274 237 510 440 708 111 109 117 114 228 193
173 123 443 241 647 281 148 30 199 34 400 31 170 -2 218 -7 321 -29z m1340
-2077 c35 -38 21 -124 -48 -299 -140 -353 -380 -644 -705 -854 -84 -54 -265
-144 -323 -160 -3 -1 -34 -12 -70 -23 -175 -59 -324 -84 -518 -87 -362 -7
-721 100 -1022 303 -151 102 -326 265 -346 324 -9 24 -9 39 0 62 20 50 61 62
236 69 85 3 164 8 175 10 11 2 56 7 100 10 44 4 91 9 105 11 25 4 53 8 140 20
25 3 113 17 195 32 83 14 159 27 170 29 38 6 80 15 211 45 73 16 141 32 153
34 43 10 58 14 136 34 44 12 89 24 100 26 18 4 134 39 320 95 201 61 531 186
720 273 177 81 193 87 226 75 15 -5 35 -18 45 -29z"/>
</g>
</svg>
